<?xml version="1.0" encoding="UTF-8"?><svg id="Ebene_1" xmlns="http://www.w3.org/2000/svg" xmlns:xlink="http://www.w3.org/1999/xlink" viewBox="0 0 700 555.13"><defs><style>.cls-1{letter-spacing:0em;}.cls-2{filter:url(#drop-shadow-4);}.cls-2,.cls-3,.cls-4{fill:#706f6f;}.cls-2,.cls-4{opacity:.25;}.cls-5{letter-spacing:-.03em;}.cls-6{stroke-width:3px;}.cls-6,.cls-7{stroke:#706f6f;stroke-miterlimit:10;}.cls-6,.cls-7,.cls-8{fill:none;}.cls-9{letter-spacing:.01em;}.cls-10{font-family:CascadiaCodeRoman-SemiBold, 'Cascadia Code';font-variation-settings:'wght' 600;font-weight:600;}.cls-10,.cls-11{fill:#fff;font-size:12px;}.cls-12{fill:#f1860b;}.cls-7{stroke-width:3.17px;}.cls-13{letter-spacing:0em;}.cls-14{letter-spacing:0em;}.cls-15{letter-spacing:0em;}.cls-11{font-family:NeueRegrade-Medium, 'Neue Regrade';font-variation-settings:'wght' 500, 'ital' 0;font-weight:500;}.cls-16{letter-spacing:-.03em;}.cls-17{letter-spacing:0em;}.cls-18{letter-spacing:-.01em;}.cls-8{opacity:.5;}.cls-4{filter:url(#drop-shadow-5);}.cls-19{letter-spacing:0em;}.cls-20{letter-spacing:0em;}.cls-21{letter-spacing:0em;}.cls-22{letter-spacing:-.05em;}.cls-23{letter-spacing:0em;}.cls-24{letter-spacing:0em;}.cls-25{letter-spacing:-.01em;}.cls-26{letter-spacing:-.02em;}.cls-27{letter-spacing:-.02em;}.cls-28{fill:#f2b707;}</style><filter id="drop-shadow-4" filterUnits="userSpaceOnUse"><feOffset dx="0" dy="7.58"/><feGaussianBlur result="blur" stdDeviation="7.58"/><feFlood flood-color="#1d1d1b" flood-opacity=".1"/><feComposite in2="blur" operator="in"/><feComposite in="SourceGraphic"/></filter><filter id="drop-shadow-5" filterUnits="userSpaceOnUse"><feOffset dx="0" dy="7.58"/><feGaussianBlur result="blur-2" stdDeviation="7.58"/><feFlood flood-color="#1d1d1b" flood-opacity=".1"/><feComposite in2="blur-2" operator="in"/><feComposite in="SourceGraphic"/></filter></defs><rect class="cls-7" x="14.66" y="49.79" width="672.51" height="105.7" rx="13.21" ry="13.21"/><line class="cls-6" x1="200" y1="297.65" x2="350" y2="297.65"/><path class="cls-3" d="m350,308.93c6.23,0,11.28-5.05,11.28-11.28s-5.05-11.28-11.28-11.28-11.28,5.05-11.28,11.28,5.05,11.28,11.28,11.28Z"/><line class="cls-6" x1="500" y1="297.65" x2="350" y2="297.65"/><path class="cls-3" d="m350,286.37c-6.23,0-11.28,5.05-11.28,11.28s5.05,11.28,11.28,11.28,11.28-5.05,11.28-11.28-5.05-11.28-11.28-11.28Z"/><path class="cls-2" d="m400,222.77h200v210.88c0,10.46-8.49,18.95-18.95,18.95h-162.1c-10.46,0-18.95-8.49-18.95-18.95v-210.88h0Z"/><path class="cls-28" d="m546.39,522.77h-121.39l17.02-42.18c1.91-4.73,6.49-7.82,11.59-7.82h121.39l-17.02,42.18c-1.91,4.73-6.49,7.82-11.59,7.82Z"/><text class="cls-11" transform="translate(442.71 493.93)"><tspan x="0" y="0">floodplain (el</tspan><tspan class="cls-26" x="66.86" y="0">e</tspan><tspan class="cls-18" x="73.16" y="0">v</tspan><tspan class="cls-27" x="78.9" y="0">a</tspan><tspan class="cls-23" x="85.37" y="0">t</tspan><tspan x="89.33" y="0">ion), </tspan><tspan class="cls-19" x="2.66" y="14.4">a</tspan><tspan class="cls-24" x="9.39" y="14.4">ss</tspan><tspan class="cls-25" x="20.38" y="14.4">e</tspan><tspan class="cls-1" x="26.74" y="14.4">t</tspan><tspan class="cls-5" x="30.73" y="14.4">s</tspan><tspan class="cls-24" x="35.89" y="14.4">, popul</tspan><tspan class="cls-27" x="71.45" y="14.4">a</tspan><tspan class="cls-23" x="77.92" y="14.4">t</tspan><tspan x="81.88" y="14.4">ion, ...</tspan></text><line class="cls-6" x1="500" y1="333.41" x2="500" y2="472.77"/><polygon class="cls-3" points="492.52 335.6 500 322.65 507.48 335.6 492.52 335.6"/><path class="cls-3" d="m412.5,172.53h175c6.9,0,12.5,5.6,12.5,12.5v37.5h-200v-37.5c0-6.9,5.6-12.5,12.5-12.5Z"/><text class="cls-11" transform="translate(480.91 200.89)"><tspan x="0" y="0">Haz</tspan><tspan class="cls-20" x="20.58" y="0">a</tspan><tspan class="cls-5" x="27.19" y="0">r</tspan><tspan x="31.36" y="0">d</tspan></text><path class="cls-12" d="m575,297.65l-21.34,21.34c-2.34,2.34-5.52,3.66-8.84,3.66h-89.64c-3.32,0-6.49-1.32-8.84-3.66l-21.34-21.34,21.34-21.34c2.34-2.34,5.52-3.66,8.84-3.66h89.64c3.32,0,6.49,1.32,8.84,3.66l21.34,21.34Z"/><text class="cls-10" transform="translate(454.3 292.63)"><tspan x="0" y="0">Distribution,</tspan><tspan x="24.61" y="14.4">Driver</tspan></text><path class="cls-4" d="m100,222.65h200v210.88c0,10.46-8.49,18.95-18.95,18.95H118.95c-10.46,0-18.95-8.49-18.95-18.95v-210.88h0Z"/><path class="cls-28" d="m246.39,522.65h-121.39l17.02-42.18c1.91-4.73,6.49-7.82,11.59-7.82h121.39l-17.02,42.18c-1.91,4.73-6.49,7.82-11.59,7.82Z"/><text class="cls-11" transform="translate(142.71 493.81)"><tspan x="0" y="0">floodplain (el</tspan><tspan class="cls-26" x="66.86" y="0">e</tspan><tspan class="cls-18" x="73.16" y="0">v</tspan><tspan class="cls-27" x="78.9" y="0">a</tspan><tspan class="cls-23" x="85.37" y="0">t</tspan><tspan x="89.33" y="0">ion), </tspan><tspan class="cls-19" x="2.66" y="14.4">a</tspan><tspan class="cls-24" x="9.39" y="14.4">ss</tspan><tspan class="cls-25" x="20.38" y="14.4">e</tspan><tspan class="cls-1" x="26.74" y="14.4">t</tspan><tspan class="cls-5" x="30.73" y="14.4">s</tspan><tspan class="cls-24" x="35.89" y="14.4">, popul</tspan><tspan class="cls-27" x="71.45" y="14.4">a</tspan><tspan class="cls-23" x="77.92" y="14.4">t</tspan><tspan x="81.88" y="14.4">ion, ...</tspan></text><path class="cls-12" d="m275,397.65l-21.34,21.34c-2.34,2.34-5.52,3.66-8.84,3.66h-89.64c-3.32,0-6.49-1.32-8.84-3.66l-21.34-21.34,21.34-21.34c2.34-2.34,5.52-3.66,8.84-3.66h89.64c3.32,0,6.49,1.32,8.84,3.66l21.34,21.34Z"/><text class="cls-10" transform="translate(150.78 401.01)"><tspan x="0" y="0">SparseGeoArray</tspan></text><path class="cls-3" d="m112.5,172.65h175c6.9,0,12.5,5.6,12.5,12.5v37.5H100v-37.5c0-6.9,5.6-12.5,12.5-12.5Z"/><text class="cls-11" transform="translate(135.4 201.01)"><tspan x="0" y="0">Expo</tspan><tspan class="cls-21" x="25.8" y="0">s</tspan><tspan class="cls-13" x="31.22" y="0">u</tspan><tspan class="cls-16" x="38.05" y="0">r</tspan><tspan x="42.22" y="0">e &amp; </tspan><tspan class="cls-22" x="63.77" y="0">V</tspan><tspan x="70.94" y="0">uln</tspan><tspan class="cls-15" x="87.07" y="0">e</tspan><tspan class="cls-26" x="93.44" y="0">r</tspan><tspan x="97.76" y="0">a</tspan><tspan class="cls-14" x="104.47" y="0">b</tspan><tspan class="cls-9" x="111.29" y="0">il</tspan><tspan x="116.67" y="0">i</tspan><tspan class="cls-17" x="119.3" y="0">t</tspan><tspan x="123.24" y="0">y</tspan></text><path class="cls-12" d="m275,297.65l-21.34,21.34c-2.34,2.34-5.52,3.66-8.84,3.66h-89.64c-3.32,0-6.49-1.32-8.84-3.66l-21.34-21.34,21.34-21.34c2.34-2.34,5.52-3.66,8.84-3.66h89.64c3.32,0,6.49,1.32,8.84,3.66l21.34,21.34Z"/><text class="cls-10" transform="translate(136.72 301.01)"><tspan x="0" y="0">HypsometricProfile</tspan></text><line class="cls-6" x1="200" y1="333.41" x2="200" y2="372.65"/><polygon class="cls-3" points="192.52 335.6 200 322.65 207.48 335.6 192.52 335.6"/><line class="cls-6" x1="200" y1="433.41" x2="200" y2="472.65"/><polygon class="cls-3" points="192.52 435.6 200 422.65 207.48 435.6 192.52 435.6"/><rect class="cls-12" x="250" y="87.49" width="200" height="50" rx="11.18" ry="11.18"/><text class="cls-10" transform="translate(297.27 116.34)"><tspan x="0" y="0">LocalIpactModel</tspan></text><line class="cls-6" x1="350" y1="297.65" x2="350" y2="148.25"/><polygon class="cls-3" points="357.48 150.44 350 137.49 342.52 150.44 357.48 150.44"/><g class="cls-8"><rect class="cls-12" x="475" y="87.49" width="200" height="50" rx="11.18" ry="11.18"/><text class="cls-10" transform="translate(522.27 116.34)"><tspan x="0" y="0">LocalIpactModel</tspan></text></g><g class="cls-8"><rect class="cls-12" x="25" y="87.49" width="200" height="50" rx="11.18" ry="11.18"/><text class="cls-10" transform="translate(72.27 116.34)"><tspan x="0" y="0">LocalIpactModel</tspan></text></g><rect class="cls-12" x="250" y="23.53" width="200" height="50" rx="11.18" ry="11.18"/><text class="cls-10" transform="translate(276.17 52.38)"><tspan x="0" y="0">Composed Impact Model</tspan></text></svg>