<?xml version="1.0" encoding="UTF-8"?><svg id="Ebene_1" xmlns="http://www.w3.org/2000/svg" viewBox="0 0 600 300"><defs><style>.cls-1{fill:#fff;}.cls-2{fill:none;stroke:#fff;stroke-miterlimit:10;}</style></defs><line class="cls-2" x1="46.09" y1="182.57" x2="553.91" y2="182.57"/><line class="cls-2" x1="86.16" y1="182.57" x2="509.35" y2="182.57"/><line class="cls-2" x1="126.24" y1="182.57" x2="464.78" y2="182.57"/><line class="cls-2" x1="166.31" y1="182.57" x2="420.22" y2="182.57"/><line class="cls-2" x1="206.38" y1="182.57" x2="375.65" y2="182.57"/><line class="cls-2" x1="246.45" y1="182.57" x2="331.09" y2="182.57"/><path class="cls-2" d="m327.92,182.57c-38.47,0-41.39,18.8-41.39,0,0-55.74-9.42,10.11-20.12,11.42-4.12.5-10.35-1.07-18.96-11.42"/><path class="cls-2" d="m369.31,182.57c-76.95,0-82.79,37.6-82.79,0,0-111.48-18.85,20.23-40.24,22.85-8.23,1.01-20.69-2.14-37.93-22.85"/><path class="cls-2" d="m410.71,182.57c-115.42,0-124.18,56.4-124.18,0,0-167.22-28.27,30.34-60.35,34.27-12.35,1.51-31.04-3.22-56.89-34.27"/><path class="cls-2" d="m452.1,182.57c-153.9,0-165.58,75.2-165.58,0,0-222.96-37.7,40.45-80.47,45.7-16.46,2.02-41.38-4.29-75.86-45.7"/><path class="cls-2" d="m493.5,182.57c-192.37,0-206.97,94-206.97,0,0-278.7-47.12,50.57-100.59,57.12-20.58,2.52-51.73-5.36-94.82-57.12"/><path class="cls-2" d="m534.89,182.57c-230.85,0-248.36,112.8-248.36,0,0-334.44-56.54,60.68-120.71,68.55-24.7,3.03-62.07-6.43-113.79-68.55"/><path class="cls-1" d="m366.29,148.93c-3.11,5.53-7.5,9.72-13.17,12.59-5.67,2.87-12.24,4.3-19.73,4.3h-25.92v-73.45h25.92c7.35,0,13.85,1.43,19.52,4.3,5.67,2.87,10.09,7.07,13.27,12.59,3.18,5.53,4.77,12.14,4.77,19.83s-1.56,14.31-4.67,19.83Zm-20.46.89c3.6-1.92,6.35-4.69,8.24-8.29,1.89-3.6,2.83-7.75,2.83-12.43s-.94-8.85-2.83-12.49c-1.89-3.64-4.63-6.47-8.24-8.5-3.6-2.03-7.85-3.04-12.75-3.04h-11.54v47.64h11.54c4.9,0,9.15-.96,12.75-2.89Z"/><path class="cls-1" d="m396.87,92.37v73.45h-14.06v-73.45h14.06Z"/><path class="cls-1" d="m461.61,92.37h14.79l-24.24,73.45h-22.03l-24.24-73.45h14.79l18.15,54.46c.63,1.96,1.08,4.06,1.36,6.3h1.89c.28-2.24.73-4.34,1.36-6.3l18.15-54.46Z"/><path class="cls-1" d="m539.89,165.82h-12.59l-5.25-15.32h-33.89l-5.35,15.32h-12.59l26.23-73.45h17.21l26.23,73.45Zm-21.93-26.76l-11.96-34h-1.89l-11.86,34h25.71Z"/></svg>