<?xml version="1.0" encoding="utf-8"?>
<!-- Generator: Adobe Illustrator 27.7.0, SVG Export Plug-In . SVG Version: 6.00 Build 0)  -->
<svg version="1.1" id="Ebene_1" xmlns="http://www.w3.org/2000/svg" xmlns:xlink="http://www.w3.org/1999/xlink" x="0px" y="0px"
	 viewBox="0 0 600 300" style="enable-background:new 0 0 600 300;" xml:space="preserve">
<style type="text/css">
	.st0{fill:none;stroke:#000000;stroke-width:5;stroke-miterlimit:10;}
	.st1{fill:none;stroke:#000000;stroke-miterlimit:10;}
	.st2{fill:none;stroke:#000000;stroke-width:2;stroke-miterlimit:10;}
	.st3{fill:none;stroke:#000000;stroke-width:6;stroke-miterlimit:10;}
</style>
<line class="st0" x1="46.1" y1="182.6" x2="553.9" y2="182.6"/>
<line class="st1" x1="126.2" y1="182.6" x2="464.8" y2="182.6"/>
<line class="st1" x1="166.3" y1="182.6" x2="420.2" y2="182.6"/>
<line class="st1" x1="206.4" y1="182.6" x2="375.6" y2="182.6"/>
<line class="st1" x1="246.4" y1="182.6" x2="331.1" y2="182.6"/>
<path class="st2" d="M327.9,182.6c-38.5,0-41.4,18.8-41.4,0c0-55.7-9.4,10.1-20.1,11.4c-4.1,0.5-10.4-1.1-19-11.4"/>
<path class="st2" d="M369.3,182.6c-77,0-82.8,37.6-82.8,0c0-111.5-18.9,20.2-40.2,22.9c-8.2,1-20.7-2.1-37.9-22.9"/>
<path class="st2" d="M410.7,182.6c-115.4,0-124.2,56.4-124.2,0c0-167.2-28.3,30.3-60.4,34.3c-12.4,1.5-31-3.2-56.9-34.3"/>
<path class="st2" d="M452.1,182.6c-153.9,0-165.6,75.2-165.6,0c0-223-37.7,40.4-80.5,45.7c-16.5,2-41.4-4.3-75.9-45.7"/>
<path class="st2" d="M493.5,182.6c-192.4,0-207,94-207,0c0-278.7-47.1,50.6-100.6,57.1c-20.6,2.5-51.7-5.4-94.8-57.1"/>
<path class="st3" d="M534.9,182.6c-230.9,0-248.4,112.8-248.4,0c0-334.4-56.5,60.7-120.7,68.6c-24.7,3-62.1-6.4-113.8-68.6"/>
<g>
	<g>
		<path d="M339.9,82.5h26.3c5.1,0,9.9,0.9,14.2,2.8c4.3,1.8,8,4.4,11.2,7.6c3.1,3.3,5.6,7.1,7.4,11.6c1.8,4.5,2.7,9.3,2.7,14.5
			c0,5.2-0.9,10-2.7,14.5c-1.8,4.4-4.3,8.3-7.4,11.5c-3.1,3.3-6.8,5.8-11.2,7.6c-4.3,1.8-9.1,2.8-14.2,2.8h-26.3V82.5z M366.1,148.1
			c4,0,7.7-0.8,11.1-2.3c3.3-1.5,6.2-3.6,8.6-6.2c2.4-2.6,4.2-5.7,5.6-9.2c1.3-3.6,2-7.4,2-11.4c0-4.1-0.7-8-2-11.5
			c-1.3-3.6-3.2-6.7-5.6-9.3c-2.4-2.6-5.2-4.7-8.6-6.2c-3.3-1.5-7-2.3-11.1-2.3h-20.1l2-2.1v62.5l-2-2.1H366.1z"/>
		<path d="M414.8,82.5h8v72.9h-8V82.5z"/>
		<path d="M487.8,82.5h8.2l-27.5,72.9h-8.9l-27.5-72.9h8.4l24.3,65h-1.3L487.8,82.5z"/>
		<path d="M526.1,82.5h9l28.9,72.9h-8.5l-7.3-18.8l2.2,1.5h-39.8l2.2-1.5l-7.3,18.8h-8.5L526.1,82.5z M513.1,131.2h35.1l-1.1,1.7
			L530,90.2h1.4l-17.3,42.7L513.1,131.2z"/>
	</g>
</g>
</svg>
