<?xml version="1.0" encoding="UTF-8"?><svg id="Ebene_1" xmlns="http://www.w3.org/2000/svg" viewBox="0 0 600 300"><defs><style>.cls-1{fill:none;stroke:#fff;stroke-miterlimit:10;}.cls-2{letter-spacing:-.08em;}.cls-3{fill:#fff;font-family:NeueRegrade-Bold, 'Neue Regrade';font-size:104.93px;font-variation-settings:'wght' 700, 'ital' 0;font-weight:700;}</style></defs><line class="cls-1" x1="46.09" y1="182.57" x2="553.91" y2="182.57"/><line class="cls-1" x1="86.16" y1="182.57" x2="509.35" y2="182.57"/><line class="cls-1" x1="126.24" y1="182.57" x2="464.78" y2="182.57"/><line class="cls-1" x1="166.31" y1="182.57" x2="420.22" y2="182.57"/><line class="cls-1" x1="206.38" y1="182.57" x2="375.65" y2="182.57"/><line class="cls-1" x1="246.45" y1="182.57" x2="331.09" y2="182.57"/><path class="cls-1" d="m327.92,182.57c-38.47,0-41.39,18.8-41.39,0,0-55.74-9.42,10.11-20.12,11.42-4.12.5-10.35-1.07-18.96-11.42"/><path class="cls-1" d="m369.31,182.57c-76.95,0-82.79,37.6-82.79,0,0-111.48-18.85,20.23-40.24,22.85-8.23,1.01-20.69-2.14-37.93-22.85"/><path class="cls-1" d="m410.71,182.57c-115.42,0-124.18,56.4-124.18,0,0-167.22-28.27,30.34-60.35,34.27-12.35,1.51-31.04-3.22-56.89-34.27"/><path class="cls-1" d="m452.1,182.57c-153.9,0-165.58,75.2-165.58,0,0-222.96-37.7,40.45-80.47,45.7-16.46,2.02-41.38-4.29-75.86-45.7"/><path class="cls-1" d="m493.5,182.57c-192.37,0-206.97,94-206.97,0,0-278.7-47.12,50.57-100.59,57.12-20.58,2.52-51.73-5.36-94.82-57.12"/><path class="cls-1" d="m534.89,182.57c-230.85,0-248.36,112.8-248.36,0,0-334.44-56.54,60.68-120.71,68.55-24.7,3.03-62.07-6.43-113.79-68.55"/><text class="cls-3" transform="translate(299.5 165.82)"><tspan x="0" y="0">DI</tspan><tspan class="cls-2" x="105.34" y="0">V</tspan><tspan x="169.66" y="0">A</tspan></text></svg>